<?xml version="1.0" standalone="no"?><svg xmlns="http://www.w3.org/2000/svg" viewBox="0 0 1440 320"><path fill="#8400c4" fill-opacity="1" d="M0,0L20,21.3C40,43,80,85,120,90.7C160,96,200,64,240,90.7C280,117,320,203,360,234.7C400,267,440,245,480,208C520,171,560,117,600,85.3C640,53,680,43,720,80C760,117,800,203,840,202.7C880,203,920,117,960,106.7C1000,96,1040,160,1080,181.3C1120,203,1160,181,1200,144C1240,107,1280,53,1320,80C1360,107,1400,213,1420,266.7L1440,320L1440,0L1420,0C1400,0,1360,0,1320,0C1280,0,1240,0,1200,0C1160,0,1120,0,1080,0C1040,0,1000,0,960,0C920,0,880,0,840,0C800,0,760,0,720,0C680,0,640,0,600,0C560,0,520,0,480,0C440,0,400,0,360,0C320,0,280,0,240,0C200,0,160,0,120,0C80,0,40,0,20,0L0,0Z"></path></svg>